G04 #@! TF.GenerationSoftware,KiCad,Pcbnew,(5.1.4)-1*
G04 #@! TF.CreationDate,2020-05-21T10:54:05+02:00*
G04 #@! TF.ProjectId,MSense_Coupon,4d53656e-7365-45f4-936f-75706f6e2e6b,rev?*
G04 #@! TF.SameCoordinates,Original*
G04 #@! TF.FileFunction,Copper,L1,Top*
G04 #@! TF.FilePolarity,Positive*
%FSLAX46Y46*%
G04 Gerber Fmt 4.6, Leading zero omitted, Abs format (unit mm)*
G04 Created by KiCad (PCBNEW (5.1.4)-1) date 2020-05-21 10:54:05*
%MOMM*%
%LPD*%
G04 APERTURE LIST*
%ADD10R,5.080000X1.500000*%
%ADD11C,3.200000*%
%ADD12R,1.700000X1.700000*%
%ADD13O,1.700000X1.700000*%
%ADD14C,8.000000*%
%ADD15C,1.000000*%
%ADD16C,0.250000*%
%ADD17C,4.000000*%
G04 APERTURE END LIST*
D10*
X95500000Y-90000000D03*
X95500000Y-94250000D03*
X95500000Y-85750000D03*
D11*
X97500000Y-99000000D03*
X98000000Y-81000000D03*
D12*
X100500000Y-87500000D03*
D13*
X100500000Y-90040000D03*
X100500000Y-92580000D03*
D14*
X140000000Y-90000000D02*
X115000000Y-90000000D01*
X181000000Y-90000000D02*
X140000000Y-90000000D01*
D15*
X103174990Y-90000000D02*
X95500000Y-90000000D01*
X115000000Y-90000000D02*
X103174990Y-90000000D01*
X98830000Y-94250000D02*
X100500000Y-92580000D01*
X95500000Y-94250000D02*
X98830000Y-94250000D01*
X99000000Y-86000000D02*
X100500000Y-87500000D01*
X95500000Y-85750000D02*
X98750000Y-85750000D01*
X98750000Y-85750000D02*
X99000000Y-86000000D01*
X108000000Y-92580000D02*
X113460000Y-98040000D01*
X109000000Y-86500000D02*
X113500000Y-82000000D01*
D16*
X113500000Y-82000000D02*
X113500000Y-82000000D01*
D17*
X113500000Y-82000000D02*
X181500000Y-82000000D01*
X181500000Y-82000000D02*
X181500000Y-82000000D01*
X113460000Y-98040000D02*
X177960000Y-98040000D01*
X177960000Y-98040000D02*
X181460000Y-98040000D01*
X181460000Y-98040000D02*
X181460000Y-98040000D01*
X181460000Y-98040000D02*
X183960000Y-98040000D01*
X183960000Y-98040000D02*
X189000000Y-93000000D01*
X189000000Y-93000000D02*
X189000000Y-93000000D01*
X181500000Y-82000000D02*
X184000000Y-82000000D01*
X184000000Y-82000000D02*
X189000000Y-87000000D01*
X189000000Y-87000000D02*
X189000000Y-93000000D01*
D15*
X100500000Y-92580000D02*
X108000000Y-92580000D01*
X100500000Y-87500000D02*
X108000000Y-87500000D01*
X108000000Y-87500000D02*
X109000000Y-86500000D01*
M02*
